<svg id="button" xmlns="http://www.w3.org/2000/svg" width="88" height="88" viewBox="0 0 88 88">
  <path id="Trazado_22707" data-name="Trazado 22707" d="M44,0A44,44,0,1,1,0,44,44,44,0,0,1,44,0Z" fill="#465def"/>
  <path id="robot" d="M0,16.444v8.222a2.026,2.026,0,0,0,2,2.056H4V14.389H2A2.026,2.026,0,0,0,0,16.444ZM29,6.167H22V2.056a2,2,0,1,0-4,0V6.167H11a5.069,5.069,0,0,0-5,5.139V28.778a4.06,4.06,0,0,0,4,4.111H30a4.06,4.06,0,0,0,4-4.111V11.306A5.069,5.069,0,0,0,29,6.167ZM16,26.722H12V24.667h4Zm-2-7.708a2.57,2.57,0,1,1,2.5-2.569A2.535,2.535,0,0,1,14,19.014Zm8,7.708H18V24.667h4Zm6,0H24V24.667h4Zm-2-7.708a2.57,2.57,0,1,1,2.5-2.569A2.535,2.535,0,0,1,26,19.014Zm12-4.625H36V26.722h2a2.026,2.026,0,0,0,2-2.056V16.444A2.026,2.026,0,0,0,38,14.389Z" transform="translate(24 27.556)" fill="#f2f2f2"/>
</svg>
