<?xml version="1.0" encoding="utf-8"?>
<!-- Generator: Adobe Illustrator 28.1.0, SVG Export Plug-In . SVG Version: 6.00 Build 0)  -->
<svg version="1.1" id="button" xmlns="http://www.w3.org/2000/svg" xmlns:xlink="http://www.w3.org/1999/xlink" x="0px" y="0px"
	 width="88px" height="88px" viewBox="0 0 88 88" style="enable-background:new 0 0 88 88;" xml:space="preserve">
<style type="text/css">
	.st0{fill:#019DF4;}
	.st1{fill:#FFFFFF;}
</style>
<path id="Trazado_22707" class="st0" d="M44,0c24.3,0,44,19.7,44,44S68.3,88,44,88S0,68.3,0,44S19.7,0,44,0z"/>
<g>
	<path class="st1" d="M24.4,42.2H27v-0.6c0-0.8,0.1-1.6,0.4-2.2c0.3-0.7,0.7-1.4,1.3-1.9c0.5-0.5,1.2-1,1.9-1.3
		c0.7-0.3,1.4-0.4,2.2-0.4H43v0V32c-0.2-0.1-0.3-0.1-0.5-0.2c-0.2-0.1-0.4-0.3-0.6-0.4c-0.3-0.3-0.5-0.6-0.6-0.9
		c-0.1-0.3-0.2-0.7-0.2-1.1c0-0.4,0.1-0.8,0.2-1.1c0.1-0.4,0.4-0.7,0.6-0.9s0.6-0.5,0.9-0.6c0.4-0.1,0.7-0.2,1.1-0.2
		s0.8,0.1,1.1,0.2s0.7,0.4,0.9,0.6c0.3,0.3,0.5,0.6,0.6,0.9c0.1,0.3,0.2,0.7,0.2,1.1c0,0.4-0.1,0.8-0.2,1.1
		c-0.1,0.4-0.4,0.7-0.6,0.9l0,0c-0.2,0.2-0.4,0.3-0.6,0.4c-0.1,0.1-0.3,0.2-0.5,0.2v3.6v0h10.2c0.8,0,1.6,0.1,2.2,0.4
		c0.7,0.3,1.4,0.7,1.9,1.3c0.5,0.5,1,1.2,1.3,1.9c0.3,0.7,0.4,1.4,0.4,2.2v0.6h2.5c0.3,0,0.7,0.1,1,0.2c0.3,0.1,0.6,0.3,0.8,0.5l0,0
		c0.2,0.3,0.4,0.5,0.5,0.8c0.1,0.3,0.2,0.6,0.2,1v6.8c0,0.3-0.1,0.7-0.2,1c-0.1,0.3-0.3,0.6-0.5,0.8l0,0C65,53.7,64.3,54,63.6,54
		h-2.5c0,0.8-0.2,1.5-0.4,2.2c-0.3,0.7-0.7,1.4-1.3,1.9c-0.5,0.5-1.2,1-1.9,1.3c-0.7,0.3-1.4,0.4-2.2,0.4H32.8
		c-0.8,0-1.6-0.1-2.2-0.4c-0.7-0.3-1.4-0.7-1.9-1.3c-0.5-0.5-1-1.2-1.3-1.9C27.1,55.5,27,54.8,27,54h-2.6c-0.3,0-0.7-0.1-1-0.2
		c-0.3-0.1-0.6-0.3-0.8-0.5l0,0c-0.2-0.3-0.4-0.5-0.5-0.8c-0.1-0.2-0.2-0.6-0.2-0.9v-6.8c0-0.4,0.1-0.7,0.2-1
		c0.1-0.3,0.3-0.6,0.5-0.8l0,0c0.3-0.3,0.5-0.4,0.8-0.5C23.7,42.2,24,42.2,24.4,42.2L24.4,42.2z M38.8,53.1c0,0-0.1-0.1-0.1-0.1
		c-0.1-0.1-0.2-0.3-0.2-0.5s0-0.3,0.2-0.5c0,0,0.1-0.1,0.1-0.1c0.2-0.1,0.4-0.3,0.7-0.3c0.3,0,0.5,0.1,0.7,0.2
		c0.7,0.5,1.3,0.9,2,1.2c0.6,0.3,1.3,0.4,1.9,0.4c0.6,0,1.3-0.1,1.9-0.4c0.6-0.3,1.3-0.6,2-1.1c0.2-0.1,0.4-0.2,0.7-0.2
		s0.5,0.1,0.7,0.3c0,0,0.1,0.1,0.1,0.1c0.1,0.1,0.1,0.3,0.1,0.5s-0.1,0.3-0.2,0.5c0,0-0.1,0.1-0.1,0.1c-0.9,0.6-1.7,1.1-2.6,1.4
		c-0.9,0.3-1.8,0.5-2.6,0.5c-0.9,0-1.8-0.1-2.7-0.5C40.5,54.3,39.7,53.8,38.8,53.1L38.8,53.1L38.8,53.1z M36.6,42.1
		c0.2,0,0.4,0,0.6,0.1c0.2,0,0.4,0.1,0.6,0.2c0.2,0.1,0.4,0.2,0.6,0.3s0.3,0.3,0.5,0.4h0c0.1,0.1,0.3,0.3,0.4,0.5l0,0
		c0.1,0.2,0.2,0.4,0.3,0.5s0.1,0.4,0.2,0.6c0,0.2,0.1,0.4,0.1,0.6s0,0.4-0.1,0.6c0,0.2-0.1,0.4-0.2,0.6c-0.1,0.2-0.2,0.4-0.3,0.6
		s-0.3,0.4-0.4,0.5c-0.3,0.3-0.6,0.5-1.1,0.7c-0.2,0.1-0.4,0.1-0.6,0.2c-0.2,0-0.4,0.1-0.6,0.1s-0.4,0-0.6-0.1
		c-0.2,0-0.4-0.1-0.6-0.2c-0.2-0.1-0.4-0.2-0.6-0.3c-0.2-0.1-0.4-0.3-0.5-0.4c-0.1-0.1-0.3-0.3-0.4-0.5l0,0
		c-0.1-0.2-0.2-0.4-0.3-0.5s-0.1-0.4-0.2-0.6c0-0.2-0.1-0.4-0.1-0.6c0-0.2,0-0.4,0.1-0.6s0.1-0.4,0.2-0.6c0.1-0.2,0.2-0.4,0.3-0.6
		s0.3-0.4,0.4-0.5c0.1-0.1,0.3-0.3,0.5-0.4l0,0c0.2-0.1,0.4-0.2,0.5-0.3c0.2-0.1,0.4-0.1,0.6-0.2C36.1,42.1,36.4,42.1,36.6,42.1
		L36.6,42.1z M37.3,43.7c-0.1,0-0.2-0.1-0.4-0.1c-0.1,0-0.3,0-0.4,0s-0.3,0-0.4,0s-0.3,0.1-0.4,0.1c-0.1,0-0.2,0.1-0.3,0.2
		s-0.2,0.1-0.3,0.3s-0.2,0.2-0.3,0.3s-0.1,0.2-0.2,0.3c0,0.1-0.1,0.2-0.1,0.4c0,0.1,0,0.3,0,0.4s0,0.3,0,0.4s0.1,0.3,0.1,0.4
		s0.1,0.2,0.2,0.3s0.1,0.2,0.3,0.3s0.2,0.2,0.3,0.3s0.2,0.1,0.3,0.2l0,0c0.1,0,0.2,0.1,0.3,0.1s0.3,0,0.4,0s0.3,0,0.4,0
		s0.3-0.1,0.4-0.1c0.1,0,0.2-0.1,0.3-0.2s0.2-0.1,0.3-0.3s0.2-0.2,0.3-0.3s0.1-0.2,0.2-0.3c0-0.1,0.1-0.2,0.1-0.4c0-0.1,0-0.3,0-0.4
		s0-0.3,0-0.4s-0.1-0.3-0.1-0.4s-0.1-0.2-0.2-0.3s-0.1-0.2-0.2-0.3l0,0c-0.1-0.1-0.2-0.1-0.3-0.2C37.5,43.8,37.4,43.7,37.3,43.7
		L37.3,43.7z M51.5,42.1c0.2,0,0.4,0,0.6,0.1c0.2,0,0.4,0.1,0.6,0.2c0.2,0.1,0.4,0.2,0.6,0.3s0.3,0.3,0.5,0.4c0,0,0,0,0,0
		c0.1,0.1,0.3,0.3,0.4,0.5l0,0c0.1,0.2,0.2,0.4,0.3,0.5c0.1,0.2,0.1,0.4,0.2,0.6c0,0.2,0.1,0.4,0.1,0.6s0,0.4-0.1,0.6
		c0,0.2-0.1,0.4-0.2,0.6c-0.1,0.2-0.2,0.4-0.3,0.6c-0.1,0.2-0.3,0.4-0.4,0.5s-0.3,0.3-0.5,0.4l0,0c-0.2,0.1-0.4,0.2-0.6,0.3
		c-0.2,0.1-0.4,0.1-0.6,0.2c-0.2,0-0.4,0.1-0.6,0.1s-0.4,0-0.6-0.1c-0.2,0-0.4-0.1-0.6-0.2c-0.2-0.1-0.4-0.2-0.6-0.3h0
		c-0.2-0.1-0.3-0.3-0.5-0.4c-0.1-0.1-0.3-0.3-0.4-0.5l0,0c-0.1-0.2-0.2-0.4-0.3-0.5s-0.1-0.4-0.2-0.6c0-0.2-0.1-0.4-0.1-0.6
		s0-0.4,0.1-0.6c0-0.2,0.1-0.4,0.2-0.6c0.1-0.2,0.2-0.4,0.3-0.6c0.1-0.2,0.3-0.4,0.4-0.5c0.1-0.1,0.3-0.3,0.5-0.4s0.4-0.2,0.6-0.3
		s0.4-0.1,0.6-0.2C51.1,42.1,51.4,42.1,51.5,42.1L51.5,42.1z M52.3,43.7c-0.1,0-0.2-0.1-0.3-0.1c-0.1,0-0.3,0-0.4,0
		c-0.1,0-0.3,0-0.4,0c-0.1,0-0.3,0.1-0.3,0.1c-0.1,0-0.2,0.1-0.3,0.2c-0.1,0.1-0.2,0.1-0.3,0.3s-0.2,0.2-0.3,0.3
		c-0.1,0.1-0.1,0.2-0.2,0.3c0,0.1-0.1,0.2-0.1,0.4c0,0.1,0,0.3,0,0.4s0,0.3,0,0.4s0.1,0.3,0.1,0.4c0,0.1,0.1,0.2,0.2,0.3
		c0.1,0.1,0.1,0.2,0.3,0.3s0.2,0.2,0.3,0.3c0.1,0.1,0.2,0.1,0.3,0.2l0,0c0.1,0,0.2,0.1,0.3,0.1c0.1,0,0.3,0,0.4,0c0.1,0,0.3,0,0.4,0
		c0.1,0,0.3-0.1,0.3-0.1c0.1,0,0.2-0.1,0.3-0.2c0.1-0.1,0.2-0.1,0.3-0.2l0,0c0.1-0.1,0.2-0.2,0.3-0.3c0.1-0.1,0.1-0.2,0.2-0.3
		c0-0.1,0.1-0.2,0.1-0.4c0-0.1,0-0.3,0-0.4c0-0.1,0-0.3,0-0.4c0-0.1-0.1-0.3-0.1-0.4c0-0.1-0.1-0.2-0.2-0.3
		c-0.1-0.1-0.1-0.2-0.2-0.3h0c-0.1-0.1-0.2-0.1-0.3-0.2C52.5,43.8,52.4,43.7,52.3,43.7L52.3,43.7z M28.4,42.9V54
		c0,0.6,0.1,1.2,0.3,1.7c0.2,0.5,0.5,1,1,1.4c0.4,0.4,0.9,0.8,1.4,1c0.5,0.2,1.1,0.3,1.7,0.3h22.4c0.6,0,1.2-0.1,1.7-0.3
		s1-0.5,1.4-1c0.4-0.4,0.8-0.9,1-1.4c0.2-0.5,0.3-1.1,0.3-1.7V41.6c0-0.6-0.1-1.2-0.3-1.7c-0.2-0.5-0.5-1-1-1.4
		c-0.4-0.4-0.9-0.8-1.4-1c-0.5-0.2-1.1-0.3-1.7-0.3H32.8c-0.6,0-1.2,0.1-1.7,0.3c-0.5,0.2-1,0.5-1.4,1c-0.4,0.4-0.8,0.9-1,1.4
		c-0.2,0.5-0.3,1.1-0.3,1.7V42.9L28.4,42.9z M27,43.6h-2.6c-0.1,0-0.3,0-0.4,0.1c-0.1,0.1-0.3,0.1-0.4,0.3l0,0
		c-0.1,0.1-0.2,0.2-0.2,0.4c0,0.1-0.1,0.3-0.1,0.4v6.8c0,0.1,0,0.3,0.1,0.4c0.1,0.1,0.1,0.3,0.3,0.4c0.2,0.2,0.5,0.3,0.8,0.3H27
		V43.6L27,43.6z M63.6,43.6h-2.5v9.1h2.5c0.1,0,0.3,0,0.4-0.1c0.1-0.1,0.3-0.1,0.4-0.3s0.2-0.2,0.3-0.4c0.1-0.1,0.1-0.3,0.1-0.4
		v-6.8c0-0.1,0-0.3-0.1-0.4c-0.1-0.1-0.1-0.3-0.3-0.4l0,0c-0.1-0.1-0.2-0.2-0.4-0.3C63.9,43.6,63.8,43.6,63.6,43.6L63.6,43.6z"/>
</g>
</svg>
