<?xml version="1.0" encoding="utf-8"?>
<!-- Generator: Adobe Illustrator 28.1.0, SVG Export Plug-In . SVG Version: 6.00 Build 0)  -->
<svg version="1.1" id="Layer_1" xmlns="http://www.w3.org/2000/svg" xmlns:xlink="http://www.w3.org/1999/xlink" x="0px" y="0px"
	 width="122.9px" height="93px" viewBox="0 0 122.9 93" style="enable-background:new 0 0 122.9 93;" xml:space="preserve">
<style type="text/css">
	.st0{fill:#FFFFFF;}
</style>
<g>
	<path class="st0" d="M7.1,43.9h7.1v-1.7c0-2.2,0.4-4.3,1.2-6.2c0.8-2,2-3.8,3.5-5.3c1.5-1.5,3.3-2.7,5.3-3.5c1.9-0.8,4-1.2,6.2-1.2
		h28.3v-0.1V15.6c-0.5-0.2-0.9-0.4-1.3-0.6c-0.6-0.4-1.1-0.8-1.6-1.2c-0.7-0.7-1.3-1.6-1.8-2.6c-0.4-0.9-0.6-2-0.6-3.1
		c0-1.1,0.2-2.1,0.6-3.1c0.4-1,1-1.9,1.8-2.6s1.6-1.3,2.6-1.8c1-0.4,2-0.6,3.1-0.6s2.1,0.2,3.1,0.6c1,0.4,1.9,1,2.6,1.8
		C68,3.1,68.6,4,69,5c0.4,0.9,0.6,2,0.6,3.1c0,1.1-0.2,2.1-0.6,3.1c-0.4,1-1,1.9-1.8,2.6l0,0c-0.5,0.5-1,0.9-1.6,1.2
		c-0.4,0.2-0.9,0.5-1.3,0.6v10.1v0.1h28.3c2.2,0,4.3,0.4,6.2,1.2c2,0.8,3.8,2,5.3,3.5c1.5,1.5,2.7,3.3,3.6,5.3
		c0.8,1.9,1.2,4,1.2,6.2v1.7h6.9c0.9,0,1.9,0.2,2.7,0.5c0.9,0.4,1.7,0.9,2.3,1.5l0,0c0.6,0.7,1.2,1.4,1.5,2.3
		c0.3,0.8,0.5,1.8,0.5,2.7v18.9c0,0.9-0.2,1.9-0.5,2.7c-0.4,0.9-0.9,1.7-1.5,2.3l0,0c-1.3,1.3-3.1,2.1-5,2.1h-6.9
		c0,2.1-0.5,4.1-1.2,6c-0.8,2-2,3.8-3.6,5.3c-1.5,1.5-3.3,2.7-5.3,3.6c-1.9,0.8-4,1.2-6.2,1.2H30.5c-2.2,0-4.3-0.4-6.2-1.2
		c-2-0.8-3.8-2-5.3-3.6c-1.5-1.5-2.7-3.3-3.6-5.3c-0.8-1.8-1.2-3.9-1.2-6H7.1c-0.9,0-1.9-0.2-2.7-0.5c-0.9-0.4-1.7-0.9-2.3-1.5l0,0
		c-0.6-0.7-1.1-1.4-1.5-2.3C0.2,71.8,0,70.8,0,69.9V51c0-1,0.2-1.9,0.5-2.7c0.4-0.9,0.9-1.7,1.5-2.3l0,0c0.7-0.7,1.4-1.2,2.3-1.5
		C5.2,44.1,6.1,43.9,7.1,43.9L7.1,43.9z M47,74.3c-0.1-0.1-0.3-0.2-0.4-0.4c-0.3-0.4-0.5-0.9-0.5-1.3s0.1-0.9,0.5-1.3
		c0.1-0.1,0.2-0.3,0.4-0.4c0.5-0.4,1.2-0.7,1.9-0.7c0.7,0,1.4,0.2,1.9,0.6c1.9,1.4,3.7,2.5,5.5,3.2c1.8,0.7,3.6,1,5.3,1
		c1.8,0,3.6-0.4,5.4-1.1c1.8-0.7,3.7-1.8,5.6-3.1c0.6-0.4,1.2-0.6,1.9-0.6s1.4,0.3,1.9,0.7c0.1,0.1,0.2,0.2,0.4,0.4
		c0.3,0.4,0.4,0.9,0.4,1.4s-0.2,0.9-0.6,1.3c-0.1,0.1-0.3,0.3-0.4,0.4c-2.4,1.7-4.8,3-7.2,3.9c-2.4,0.9-4.9,1.4-7.3,1.4
		c-2.5,0-5-0.4-7.4-1.3C51.8,77.5,49.4,76.2,47,74.3L47,74.3L47,74.3z M40.8,43.7c0.6,0,1.2,0.1,1.8,0.2c0.6,0.1,1.2,0.3,1.7,0.5
		c0.6,0.2,1.1,0.5,1.6,0.8c0.5,0.3,0.9,0.7,1.3,1.1l0.1,0c0.4,0.4,0.8,0.9,1.1,1.4l0,0c0.3,0.5,0.6,1,0.8,1.5
		c0.2,0.5,0.4,1.1,0.5,1.7c0.1,0.6,0.2,1.2,0.2,1.8c0,0.6-0.1,1.2-0.2,1.8c-0.1,0.6-0.3,1.2-0.5,1.7c-0.2,0.6-0.5,1.1-0.8,1.6
		c-0.3,0.5-0.7,1-1.1,1.4c-0.8,0.8-1.8,1.5-3,2c-0.5,0.2-1.1,0.4-1.7,0.5c-0.6,0.1-1.2,0.2-1.8,0.2s-1.2-0.1-1.8-0.2
		c-0.6-0.1-1.2-0.3-1.7-0.5c-0.6-0.2-1.1-0.5-1.6-0.8c-0.5-0.3-1-0.7-1.4-1.1c-0.4-0.4-0.8-0.9-1.1-1.4l0,0c-0.3-0.5-0.6-1-0.8-1.5
		c-0.2-0.5-0.4-1.1-0.5-1.7c-0.1-0.6-0.2-1.2-0.2-1.8c0-0.6,0.1-1.2,0.2-1.8c0.1-0.6,0.3-1.2,0.5-1.7c0.2-0.6,0.5-1.1,0.8-1.6
		c0.3-0.5,0.7-1,1.1-1.4c0.4-0.4,0.9-0.8,1.4-1.1l0,0c0.5-0.3,1-0.6,1.5-0.8c0.5-0.2,1.1-0.4,1.7-0.5C39.6,43.8,40.2,43.7,40.8,43.7
		L40.8,43.7z M42.7,48.1c-0.3-0.1-0.6-0.2-1-0.3c-0.3-0.1-0.7-0.1-1-0.1s-0.7,0-1,0.1c-0.3,0.1-0.7,0.2-1,0.3
		c-0.3,0.1-0.6,0.3-0.9,0.5c-0.3,0.2-0.5,0.4-0.8,0.7s-0.5,0.5-0.7,0.8c-0.2,0.3-0.3,0.6-0.5,0.9c-0.1,0.3-0.2,0.6-0.3,1
		c-0.1,0.3-0.1,0.7-0.1,1s0,0.7,0.1,1c0.1,0.3,0.2,0.7,0.3,1c0.1,0.3,0.3,0.6,0.5,0.9c0.2,0.3,0.4,0.5,0.7,0.8s0.5,0.5,0.8,0.7
		c0.3,0.2,0.6,0.3,0.9,0.5l0,0c0.3,0.1,0.6,0.2,0.9,0.3c0.3,0.1,0.7,0.1,1,0.1s0.7,0,1-0.1c0.3-0.1,0.7-0.2,1-0.3
		c0.3-0.1,0.6-0.3,0.9-0.5c0.3-0.2,0.5-0.4,0.8-0.7s0.5-0.5,0.7-0.8c0.2-0.3,0.3-0.6,0.5-0.9c0.1-0.3,0.2-0.6,0.3-1
		c0.1-0.3,0.1-0.7,0.1-1s0-0.7-0.1-1c-0.1-0.3-0.2-0.7-0.3-1c-0.1-0.3-0.3-0.6-0.5-0.9c-0.2-0.3-0.4-0.5-0.6-0.8l0,0
		c-0.2-0.2-0.5-0.4-0.7-0.6C43.3,48.4,43,48.2,42.7,48.1L42.7,48.1z M82.3,43.7c0.6,0,1.2,0.1,1.8,0.2c0.6,0.1,1.2,0.3,1.7,0.5
		c0.6,0.2,1.1,0.5,1.6,0.8c0.5,0.3,0.9,0.7,1.3,1.1c0,0,0.1,0,0.1,0.1c0.4,0.4,0.8,0.9,1.1,1.4l0,0c0.3,0.5,0.6,1,0.8,1.5
		c0.2,0.5,0.4,1.1,0.5,1.7c0.1,0.6,0.2,1.2,0.2,1.8c0,0.6-0.1,1.2-0.2,1.8c-0.1,0.6-0.3,1.2-0.5,1.7c-0.2,0.6-0.5,1.1-0.8,1.6
		c-0.3,0.5-0.7,1-1.1,1.4c-0.4,0.4-0.9,0.8-1.4,1.1l0,0c-0.5,0.3-1,0.6-1.6,0.8c-0.6,0.2-1.1,0.4-1.7,0.5c-0.6,0.1-1.2,0.2-1.8,0.2
		s-1.2-0.1-1.8-0.2c-0.6-0.1-1.2-0.3-1.7-0.5c-0.6-0.2-1.1-0.5-1.6-0.8l-0.1,0c-0.5-0.3-0.9-0.7-1.3-1.1c-0.4-0.4-0.8-0.9-1.1-1.4
		l0,0c-0.3-0.5-0.6-1-0.8-1.5c-0.2-0.5-0.4-1.1-0.5-1.7c-0.1-0.6-0.2-1.2-0.2-1.8c0-0.6,0.1-1.2,0.2-1.8c0.1-0.6,0.3-1.2,0.5-1.7
		c0.2-0.6,0.5-1.1,0.8-1.6c0.3-0.5,0.7-1,1.1-1.4c0.4-0.4,0.9-0.8,1.4-1.1c0.5-0.3,1-0.6,1.6-0.8c0.6-0.2,1.1-0.4,1.7-0.5
		C81.2,43.8,81.8,43.7,82.3,43.7L82.3,43.7z M84.3,48.1c-0.3-0.1-0.6-0.2-0.9-0.3c-0.3-0.1-0.7-0.1-1-0.1s-0.7,0-1,0.1
		c-0.3,0.1-0.7,0.2-0.9,0.3c-0.3,0.1-0.6,0.3-0.9,0.5c-0.3,0.2-0.5,0.4-0.8,0.7s-0.5,0.5-0.7,0.8c-0.2,0.3-0.3,0.6-0.5,0.9
		c-0.1,0.3-0.2,0.6-0.3,1c-0.1,0.3-0.1,0.7-0.1,1s0,0.7,0.1,1c0.1,0.3,0.2,0.7,0.3,1c0.1,0.3,0.3,0.6,0.5,0.9
		c0.2,0.3,0.4,0.5,0.7,0.8s0.5,0.5,0.8,0.7c0.3,0.2,0.6,0.3,0.9,0.5l0,0c0.3,0.1,0.6,0.2,0.9,0.3c0.3,0.1,0.7,0.1,1,0.1s0.7,0,1-0.1
		c0.3-0.1,0.7-0.2,0.9-0.3c0.3-0.1,0.6-0.3,0.9-0.5c0.3-0.2,0.5-0.4,0.8-0.6l0,0c0.2-0.2,0.5-0.5,0.7-0.8c0.2-0.3,0.3-0.6,0.5-0.9
		c0.1-0.3,0.2-0.6,0.3-1c0.1-0.3,0.1-0.7,0.1-1s0-0.7-0.1-1c-0.1-0.3-0.2-0.7-0.3-1c-0.1-0.3-0.3-0.6-0.5-0.9
		c-0.2-0.3-0.4-0.5-0.6-0.8l-0.1,0c-0.2-0.2-0.5-0.4-0.7-0.6C84.9,48.4,84.6,48.2,84.3,48.1L84.3,48.1z M18.2,45.9v30.9
		c0,1.7,0.3,3.2,0.9,4.7c0.6,1.5,1.5,2.9,2.7,4c1.1,1.1,2.5,2.1,4,2.7c1.4,0.6,3,0.9,4.7,0.9h62.1c1.7,0,3.2-0.3,4.7-0.9
		c1.5-0.6,2.9-1.5,4-2.7s2.1-2.5,2.7-4c0.6-1.4,0.9-3,0.9-4.7V42.2c0-1.7-0.3-3.2-0.9-4.7c-0.6-1.5-1.5-2.9-2.7-4s-2.5-2.1-4-2.7
		c-1.4-0.6-3-0.9-4.7-0.9H30.5c-1.7,0-3.2,0.3-4.7,0.9c-1.5,0.6-2.9,1.5-4,2.7s-2.1,2.5-2.7,4c-0.6,1.4-0.9,3-0.9,4.7L18.2,45.9
		L18.2,45.9z M14.2,47.9H7.1c-0.4,0-0.8,0.1-1.2,0.2c-0.4,0.2-0.7,0.4-1,0.7l0,0c-0.3,0.3-0.5,0.6-0.6,1S4,50.5,4,51v18.9
		c0,0.4,0.1,0.8,0.2,1.2c0.2,0.4,0.4,0.7,0.7,1C5.5,72.6,6.2,73,7.1,73h7.1L14.2,47.9L14.2,47.9z M115.8,47.9h-6.9V73h6.9
		c0.4,0,0.8-0.1,1.2-0.2c0.4-0.2,0.7-0.4,1-0.7s0.5-0.6,0.7-1c0.2-0.4,0.2-0.8,0.2-1.2V51c0-0.4-0.1-0.8-0.2-1.2
		c-0.2-0.4-0.4-0.7-0.7-1l0,0c-0.3-0.3-0.6-0.5-1-0.7C116.6,48,116.2,47.9,115.8,47.9L115.8,47.9z"/>
</g>
</svg>
