<?xml version="1.0" encoding="utf-8"?>
<!-- Generator: Adobe Illustrator 28.1.0, SVG Export Plug-In . SVG Version: 6.00 Build 0)  -->
<svg version="1.1" id="Layer_1" xmlns="http://www.w3.org/2000/svg" xmlns:xlink="http://www.w3.org/1999/xlink" x="0px" y="0px"
	 width="40px" height="32.9px" viewBox="0 0 40 32.9" style="enable-background:new 0 0 40 32.9;" xml:space="preserve">
<style type="text/css">
	.st0{fill:#FFFFFF;}
</style>
<g>
	<path class="st0" d="M2.3,15.2h2.3v-0.6c0-0.7,0.1-1.4,0.4-2c0.3-0.7,0.7-1.2,1.1-1.7c0.5-0.5,1.1-0.9,1.7-1.1
		c0.6-0.3,1.3-0.4,2-0.4h9.2v0V6c-0.2-0.1-0.3-0.1-0.4-0.2c-0.2-0.1-0.4-0.3-0.5-0.4c-0.2-0.2-0.4-0.5-0.6-0.8
		c-0.1-0.3-0.2-0.7-0.2-1s0.1-0.7,0.2-1s0.3-0.6,0.6-0.8s0.5-0.4,0.8-0.6c0.3-0.1,0.7-0.2,1-0.2s0.7,0.1,1,0.2s0.6,0.3,0.8,0.6
		c0.3,0.2,0.5,0.5,0.6,0.8c0.1,0.3,0.2,0.7,0.2,1s-0.1,0.7-0.2,1c-0.1,0.3-0.3,0.6-0.6,0.8l0,0c-0.2,0.2-0.3,0.3-0.5,0.4
		C21.2,5.9,21.1,6,20.9,6v3.3v0h9.2c0.7,0,1.4,0.1,2,0.4c0.7,0.3,1.2,0.7,1.7,1.1c0.5,0.5,0.9,1.1,1.2,1.7c0.3,0.6,0.4,1.3,0.4,2
		v0.6h2.2c0.3,0,0.6,0.1,0.9,0.2c0.3,0.1,0.6,0.3,0.7,0.5l0,0c0.2,0.2,0.4,0.5,0.5,0.7c0.1,0.3,0.2,0.6,0.2,0.9v6.2
		c0,0.3-0.1,0.6-0.2,0.9c-0.1,0.3-0.3,0.6-0.5,0.7l0,0c-0.4,0.4-1,0.7-1.6,0.7h-2.2c0,0.7-0.2,1.3-0.4,2c-0.3,0.7-0.7,1.2-1.2,1.7
		c-0.5,0.5-1.1,0.9-1.7,1.2c-0.6,0.3-1.3,0.4-2,0.4H9.9c-0.7,0-1.4-0.1-2-0.4c-0.7-0.3-1.2-0.7-1.7-1.2c-0.5-0.5-0.9-1.1-1.2-1.7
		c-0.3-0.6-0.4-1.3-0.4-2H2.3c-0.3,0-0.6-0.1-0.9-0.2c-0.3-0.1-0.6-0.3-0.7-0.5l0,0c-0.2-0.2-0.4-0.5-0.5-0.7C0.1,24.3,0,24,0,23.7
		v-6.2c0-0.3,0.1-0.6,0.2-0.9c0.1-0.3,0.3-0.6,0.5-0.7l0,0c0.2-0.2,0.5-0.4,0.7-0.5C1.7,15.3,2,15.2,2.3,15.2L2.3,15.2z M15.3,25.1
		c0,0-0.1-0.1-0.1-0.1c-0.1-0.1-0.2-0.3-0.2-0.4c0-0.1,0-0.3,0.2-0.4c0,0,0.1-0.1,0.1-0.1c0.2-0.1,0.4-0.2,0.6-0.2
		c0.2,0,0.5,0.1,0.6,0.2c0.6,0.5,1.2,0.8,1.8,1s1.2,0.3,1.7,0.3c0.6,0,1.2-0.1,1.8-0.4c0.6-0.2,1.2-0.6,1.8-1
		c0.2-0.1,0.4-0.2,0.6-0.2c0.2,0,0.5,0.1,0.6,0.2c0,0,0.1,0.1,0.1,0.1c0.1,0.1,0.1,0.3,0.1,0.5S25.1,24.9,25,25c0,0-0.1,0.1-0.1,0.1
		c-0.8,0.6-1.6,1-2.3,1.3c-0.8,0.3-1.6,0.5-2.4,0.5c-0.8,0-1.6-0.1-2.4-0.4C16.9,26.2,16.1,25.7,15.3,25.1L15.3,25.1L15.3,25.1z
		 M13.3,15.2c0.2,0,0.4,0,0.6,0.1c0.2,0,0.4,0.1,0.6,0.2c0.2,0.1,0.4,0.2,0.5,0.3c0.2,0.1,0.3,0.2,0.4,0.4h0
		c0.1,0.1,0.3,0.3,0.4,0.5l0,0c0.1,0.2,0.2,0.3,0.3,0.5c0.1,0.2,0.1,0.4,0.2,0.6c0,0.2,0.1,0.4,0.1,0.6c0,0.2,0,0.4-0.1,0.6
		c0,0.2-0.1,0.4-0.2,0.6c-0.1,0.2-0.2,0.4-0.3,0.5c-0.1,0.2-0.2,0.3-0.4,0.5c-0.3,0.3-0.6,0.5-1,0.7c-0.2,0.1-0.4,0.1-0.6,0.2
		c-0.2,0-0.4,0.1-0.6,0.1s-0.4,0-0.6-0.1s-0.4-0.1-0.6-0.2c-0.2-0.1-0.4-0.2-0.5-0.3s-0.3-0.2-0.5-0.4c-0.1-0.1-0.3-0.3-0.4-0.5l0,0
		c-0.1-0.2-0.2-0.3-0.3-0.5c-0.1-0.2-0.1-0.4-0.2-0.6c0-0.2-0.1-0.4-0.1-0.6c0-0.2,0-0.4,0.1-0.6c0-0.2,0.1-0.4,0.2-0.6
		c0.1-0.2,0.2-0.4,0.3-0.5c0.1-0.2,0.2-0.3,0.4-0.5c0.1-0.1,0.3-0.3,0.5-0.4l0,0c0.2-0.1,0.3-0.2,0.5-0.3c0.2-0.1,0.4-0.1,0.6-0.2
		C12.9,15.2,13.1,15.2,13.3,15.2L13.3,15.2z M13.9,16.6c-0.1,0-0.2-0.1-0.3-0.1c-0.1,0-0.2,0-0.3,0c-0.1,0-0.2,0-0.3,0
		c-0.1,0-0.2,0.1-0.3,0.1c-0.1,0-0.2,0.1-0.3,0.2c-0.1,0.1-0.2,0.1-0.3,0.2c-0.1,0.1-0.2,0.2-0.2,0.3c-0.1,0.1-0.1,0.2-0.2,0.3
		c0,0.1-0.1,0.2-0.1,0.3c0,0.1,0,0.2,0,0.3c0,0.1,0,0.2,0,0.3s0.1,0.2,0.1,0.3c0,0.1,0.1,0.2,0.2,0.3c0.1,0.1,0.1,0.2,0.2,0.3
		c0.1,0.1,0.2,0.2,0.3,0.2s0.2,0.1,0.3,0.2l0,0c0.1,0,0.2,0.1,0.3,0.1c0.1,0,0.2,0,0.3,0c0.1,0,0.2,0,0.3,0c0.1,0,0.2-0.1,0.3-0.1
		c0.1,0,0.2-0.1,0.3-0.2c0.1-0.1,0.2-0.1,0.3-0.2c0.1-0.1,0.2-0.2,0.2-0.3c0.1-0.1,0.1-0.2,0.2-0.3c0-0.1,0.1-0.2,0.1-0.3
		c0-0.1,0-0.2,0-0.3c0-0.1,0-0.2,0-0.3c0-0.1-0.1-0.2-0.1-0.3c0-0.1-0.1-0.2-0.2-0.3c-0.1-0.1-0.1-0.2-0.2-0.3l0,0
		c-0.1-0.1-0.2-0.1-0.2-0.2C14.1,16.7,14,16.6,13.9,16.6L13.9,16.6z M26.8,15.2c0.2,0,0.4,0,0.6,0.1c0.2,0,0.4,0.1,0.6,0.2
		c0.2,0.1,0.4,0.2,0.5,0.3c0.2,0.1,0.3,0.2,0.4,0.4c0,0,0,0,0,0c0.1,0.1,0.3,0.3,0.4,0.5l0,0c0.1,0.2,0.2,0.3,0.3,0.5
		c0.1,0.2,0.1,0.4,0.2,0.6c0,0.2,0.1,0.4,0.1,0.6c0,0.2,0,0.4-0.1,0.6c0,0.2-0.1,0.4-0.2,0.6c-0.1,0.2-0.2,0.4-0.3,0.5
		c-0.1,0.2-0.2,0.3-0.4,0.5c-0.1,0.1-0.3,0.3-0.5,0.4l0,0c-0.2,0.1-0.3,0.2-0.5,0.3c-0.2,0.1-0.4,0.1-0.6,0.2
		c-0.2,0-0.4,0.1-0.6,0.1s-0.4,0-0.6-0.1c-0.2,0-0.4-0.1-0.6-0.2c-0.2-0.1-0.4-0.2-0.5-0.3h0c-0.2-0.1-0.3-0.2-0.4-0.4
		c-0.1-0.1-0.3-0.3-0.4-0.5l0,0c-0.1-0.2-0.2-0.3-0.3-0.5c-0.1-0.2-0.1-0.4-0.2-0.6c0-0.2-0.1-0.4-0.1-0.6c0-0.2,0-0.4,0.1-0.6
		c0-0.2,0.1-0.4,0.2-0.6c0.1-0.2,0.2-0.4,0.3-0.5c0.1-0.2,0.2-0.3,0.4-0.5c0.1-0.1,0.3-0.3,0.5-0.4c0.2-0.1,0.3-0.2,0.5-0.3
		c0.2-0.1,0.4-0.1,0.6-0.2C26.4,15.2,26.6,15.2,26.8,15.2L26.8,15.2z M27.5,16.6c-0.1,0-0.2-0.1-0.3-0.1c-0.1,0-0.2,0-0.3,0
		s-0.2,0-0.3,0c-0.1,0-0.2,0.1-0.3,0.1c-0.1,0-0.2,0.1-0.3,0.2c-0.1,0.1-0.2,0.1-0.3,0.2s-0.2,0.2-0.2,0.3s-0.1,0.2-0.2,0.3
		c0,0.1-0.1,0.2-0.1,0.3c0,0.1,0,0.2,0,0.3c0,0.1,0,0.2,0,0.3c0,0.1,0.1,0.2,0.1,0.3s0.1,0.2,0.2,0.3c0.1,0.1,0.1,0.2,0.2,0.3
		c0.1,0.1,0.2,0.2,0.3,0.2s0.2,0.1,0.3,0.2l0,0c0.1,0,0.2,0.1,0.3,0.1c0.1,0,0.2,0,0.3,0s0.2,0,0.3,0c0.1,0,0.2-0.1,0.3-0.1
		c0.1,0,0.2-0.1,0.3-0.2s0.2-0.1,0.3-0.2l0,0c0.1-0.1,0.2-0.2,0.2-0.3c0.1-0.1,0.1-0.2,0.2-0.3c0-0.1,0.1-0.2,0.1-0.3
		c0-0.1,0-0.2,0-0.3c0-0.1,0-0.2,0-0.3c0-0.1-0.1-0.2-0.1-0.3c0-0.1-0.1-0.2-0.2-0.3c-0.1-0.1-0.1-0.2-0.2-0.3h0
		c-0.1-0.1-0.2-0.1-0.2-0.2C27.7,16.7,27.6,16.6,27.5,16.6L27.5,16.6z M5.9,15.9v10.1c0,0.6,0.1,1,0.3,1.5c0.2,0.5,0.5,0.9,0.9,1.3
		c0.4,0.4,0.8,0.7,1.3,0.9c0.5,0.2,1,0.3,1.5,0.3h20.2c0.6,0,1-0.1,1.5-0.3c0.5-0.2,0.9-0.5,1.3-0.9c0.4-0.4,0.7-0.8,0.9-1.3
		c0.2-0.5,0.3-1,0.3-1.5V14.7c0-0.6-0.1-1-0.3-1.5c-0.2-0.5-0.5-0.9-0.9-1.3c-0.4-0.4-0.8-0.7-1.3-0.9c-0.5-0.2-1-0.3-1.5-0.3H9.9
		c-0.6,0-1,0.1-1.5,0.3c-0.5,0.2-0.9,0.5-1.3,0.9s-0.7,0.8-0.9,1.3c-0.2,0.5-0.3,1-0.3,1.5L5.9,15.9L5.9,15.9z M4.6,16.5H2.3
		c-0.1,0-0.3,0-0.4,0.1c-0.1,0.1-0.2,0.1-0.3,0.2l0,0c-0.1,0.1-0.2,0.2-0.2,0.3c0,0.1-0.1,0.2-0.1,0.4v6.2c0,0.1,0,0.3,0.1,0.4
		c0.1,0.1,0.1,0.2,0.2,0.3c0.2,0.2,0.4,0.3,0.7,0.3h2.3V16.5L4.6,16.5z M37.7,16.5h-2.2v8.2h2.2c0.1,0,0.3,0,0.4-0.1
		c0.1-0.1,0.2-0.1,0.3-0.2c0.1-0.1,0.2-0.2,0.2-0.3c0.1-0.1,0.1-0.3,0.1-0.4v-6.2c0-0.1,0-0.3-0.1-0.4c-0.1-0.1-0.1-0.2-0.2-0.3l0,0
		c-0.1-0.1-0.2-0.2-0.3-0.2C38,16.6,37.9,16.5,37.7,16.5L37.7,16.5z"/>
</g>
</svg>
