<svg xmlns="http://www.w3.org/2000/svg" width="37" height="37" viewBox="0 0 37 37">
  <g id="send_button" data-name="send button" transform="translate(-1804 -961.848)">
    <circle id="Elipse_1" data-name="Elipse 1" cx="18.5" cy="18.5" r="18.5" transform="translate(1804 961.848)" fill="#465def"/>
    <path id="send_FILL1_wght400_GRAD0_opsz48" d="M120.944-770.54a.659.659,0,0,1-.64-.057.63.63,0,0,1-.3-.563v-4.6l6.787-1.724L120-779.253V-783.8a.63.63,0,0,1,.3-.563.659.659,0,0,1,.64-.057l14.652,6.3a.652.652,0,0,1,.4.644.652.652,0,0,1-.4.644Z" transform="translate(1694.5 1757.831)" fill="#f2f2f2"/>
  </g>
</svg>
